# xmcd
#
# Track frame offsets: 
#        150
#        13540
#        23335
#        36600
#        46735
#        59527
#        69770
#        85582
#        97970
#        110795
#        122162
#        134617
#        148527
#
# Disc length: 2111 seconds
#
# Revision: 2
# Processed by: cddbd v1.5.2PL0 Copyright (c) Steve Scherf et al.
# Submitted via: ExactAudioCopy v0.99pb5
#
DISCID=aa083d0d
DTITLE=Magic Sam - West Side Soul (BM35)
DYEAR=1967
DGENRE=Blues
TTITLE0=All your love
TTITLE1=Love me with a feeling
TTITLE2=Everything gonna be alright
TTITLE3=Look watcha done
TTITLE4=All night long
TTITLE5=All my whole life
TTITLE6=Easy baby
TTITLE7=21 days in jail
TTITLE8=Love me this way
TTITLE9=Magic rocker
TTITLE10=Roll your moneymaker
TTITLE11=Call me if you need me
TTITLE12=Every night about this time
EXTD=
EXTT0=
EXTT1=
EXTT2=
EXTT3=
EXTT4=
EXTT5=
EXTT6=
EXTT7=
EXTT8=
EXTT9=
EXTT10=
EXTT11=
EXTT12=
PLAYORDER=
